<?xml version="1.0" standalone="no"?>
<!DOCTYPE svg PUBLIC "-//W3C//DTD SVG 1.1//EN" "http://www.w3.org/Graphics/SVG/1.1/DTD/svg11.dtd">
<svg xmlns="http://www.w3.org/2000/svg">
<defs >
<font id="Rowdies" horiz-adv-x="570" ><font-face
    font-family="Rowdies Light"
    units-per-em="1000"
    panose-1="0 0 0 0 0 0 0 0 0 0"
    ascent="997"
    descent="-245"
    alphabetic="0" />
<glyph unicode=" " glyph-name="space" horiz-adv-x="240" />
<glyph unicode="!" glyph-name="exclam" horiz-adv-x="340" d="M148 260L80 638L160 718L239 637L168 260H148ZM170 -10L80 80L170 170L260 80L170 -10Z" />
<glyph unicode="&quot;" glyph-name="quotedbl" horiz-adv-x="340" d="M80 480L30 710L90 810L150 710L100 480H80ZM240 480L190 710L250 810L310 710L260 480H240Z" />
<glyph unicode="#" glyph-name="numbersign" horiz-adv-x="922" d="M140 0V60L186 174H50V284H230L258 354L276 424H110V534H305L350 708H496V648L454 534H595L649 708H794V648L747 534H872V424H702L673 354L655 284H812V174H627L583 0H439V60L477 174H333L285
0H140ZM368 304L363 284H514L554 404L560 424H413L368 304Z" />
<glyph unicode="$" glyph-name="dollar" horiz-adv-x="710" d="M298 -60L300 -7Q249 -2 198 10T108 39T50 74L99 193Q149 167 199 150T307 125L313 265Q300 267 290 269Q202 284 149 308T73 371T50 466Q50 552 117 599T301 653L298 710H416L413 653Q506 648 552
631T618 603L578 484Q555 492 514 503T407 522L401 382Q411 380 420 379Q490 368 544 346T629 285T660 183Q660 97 597 50T414 -8L416 -60H298ZM190 455Q190 426 225 414T313 393L307 528Q301 528 294 528Q244 528 217 509T190 455ZM514 192Q514 214 483 227T401
250L408 119Q514 121 514 192Z" />
<glyph unicode="%" glyph-name="percent" horiz-adv-x="896" d="M98 0V60L457 417L662 707H808V647L470 318L244 0H98ZM228 397Q166 397 127 418T69 474T50 552Q50 595 68 630T126 686T228 707Q289 707 328 686T387 630T406 552Q406 509 387 474T329 418T228 397ZM228
487Q256 487 269 498T287 524T292 552Q292 564 288 579T270 606T228 617Q199 617 186 606T168 580T164 552Q164 540 168 525T185 498T228 487ZM668 0Q606 0 567 21T509 77T490 155Q490 198 508 233T566 289T668 310Q729 310 768 289T827 233T846 155Q846 113 827
78T769 21T668 0ZM668 90Q696 90 709 101T727 128T732 155Q732 167 728 182T710 208T668 220Q639 220 626 209T608 182T604 155Q604 143 608 128T625 102T668 90Z" />
<glyph unicode="&amp;" glyph-name="ampersand" horiz-adv-x="809" d="M268 -10Q168 -10 109 43T50 197Q50 248 72 286T126 349T191 388T244 408Q228 425 212 458T195 545Q195 602 225 644T317 708Q352 721 385 721T446 718T488 709L567 629L506 546L407 587Q378
586 361 570T343 524Q343 487 359 463T396 418L559 254L569 265L543 412L553 472L711 452V291L632 186L705 119L779 60V0H629L534 97Q521 88 498 71T442 35T366 3T268 -10ZM318 120Q365 120 401 134T462 168L292 332Q273 326 251 311T214 273T199 215Q199 168 232
144T318 120Z" />
<glyph unicode="&apos;" glyph-name="quotesingle" horiz-adv-x="180" d="M80 480L30 710L90 810L150 710L100 480H80Z" />
<glyph unicode="(" glyph-name="parenleft" horiz-adv-x="295" d="M232 -80L265 0Q248 17 227 41T185 106T152 211T139 369Q139 464 152 523T186 618T228 673T265 709L232 789Q217 789 193 778T140 740T87 665T46 545T30 369Q30 266 46 191T87 63T140 -20T192
-66T232 -80Z" />
<glyph unicode=")" glyph-name="parenright" horiz-adv-x="295" d="M63 -80L30 0Q47 17 68 41T110 106T143 211T156 369Q156 464 143 523T109 618T67 673T30 709L63 789Q78 789 102 778T155 740T208 665T249 545T265 369Q265 266 249 191T208 63T155 -20T103 -66T63 -80Z" />
<glyph unicode="*" glyph-name="asterisk" horiz-adv-x="327" d="M122 482L57 529L71 551L157 607L53 601L30 609L54 685L78 678L159 616L122 711V736H202V711L169 617L248 679L272 686L297 609L273 600L171 604L258 551L272 530L207 483L191 503L164 602L137
502L122 482Z" />
<glyph unicode="+" glyph-name="plus" horiz-adv-x="520" d="M220 90V260H50V340H220V510H300V340H470V260H300V90H220Z" />
<glyph unicode="," glyph-name="comma" horiz-adv-x="280" d="M86 -215L60 -206L110 0L50 80L130 157L230 70L86 -215Z" />
<glyph unicode="-" glyph-name="hyphen" horiz-adv-x="420" d="M50 200V300H370V200H50Z" />
<glyph unicode="." glyph-name="period" horiz-adv-x="280" d="M140 -10L50 80L140 170L230 80L140 -10Z" />
<glyph unicode="/" glyph-name="slash" horiz-adv-x="416" d="M0 -107L305 708H416L110 -107H0Z" />
<glyph unicode="0" glyph-name="zero" horiz-adv-x="636" d="M318 -10Q233 -10 171 25T74 139T40 354Q40 483 74 563T170 680T318 718Q404 718 466 680T562 562T596 354Q596 221 562 141T466 26T318 -10ZM318 134Q387 134 417 183T447 354Q447 468 417 521T318
574Q251 574 220 521T189 354Q189 234 220 184T318 134Z" />
<glyph unicode="1" glyph-name="one" horiz-adv-x="364" d="M150 0V539H30V648L294 708L304 648L294 548V0H150Z" />
<glyph unicode="2" glyph-name="two" horiz-adv-x="585" d="M35 0V109Q35 109 58 124T117 165T191 220T260 279Q325 340 357 388T389 494Q389 533 365 555T284 578Q242 578 199 569T119 547T56 519V659Q66 664 96 677T177 703T295 715Q422 715 483 661T545 506Q545
444 520 391T453 294T364 214T272 150L277 130L545 150V0H35Z" />
<glyph unicode="3" glyph-name="three" horiz-adv-x="599" d="M290 -10Q258 -10 230 -8T176 -2L40 44L80 183L270 129Q341 129 370 156T400 228Q400 260 382 279T320 298H193V427H295Q390 427 390 511Q390 578 297 578Q240 578 196 568T121 544T70 521V661Q99
680 154 698T298 717Q411 717 469 668T528 528Q528 476 512 443T470 389Q513 362 536 325T559 229Q559 153 526 100T432 18T290 -10Z" />
<glyph unicode="4" glyph-name="four" horiz-adv-x="675" d="M391 0V100H10V202L335 708H535L555 647L535 547V232H665V110L535 100V0H391ZM193 232H391V530H373L193 232Z" />
<glyph unicode="5" glyph-name="five" horiz-adv-x="605" d="M287 -10Q249 -10 222 -8T166 -2L40 44L80 183L257 128Q326 128 362 153T399 227Q399 272 374 299T278 326H70V708H515V569L265 579H223V443H290Q429 443 492 390T555 233Q555 162 524 107T432 21T287 -10Z" />
<glyph unicode="6" glyph-name="six" horiz-adv-x="647" d="M342 -10Q259 -10 190 27T81 141T40 333Q40 434 68 507T144 626T250 695T369 718Q420 718 448 710T499 692L590 610L520 496L369 579Q325 579 286 557T222 494T194 394L352 434Q422 434 479 412T572
342T607 217Q607 114 538 52T342 -10ZM351 131Q401 131 429 155T458 223Q458 265 426 287T343 310Q300 310 262 298T207 273Q209 241 224 208T271 153T351 131Z" />
<glyph unicode="7" glyph-name="seven" horiz-adv-x="544" d="M130 0L317 474L370 579H340L30 559V708H514V607L349 160L299 0H130Z" />
<glyph unicode="8" glyph-name="eight" horiz-adv-x="635" d="M321 -10Q266 -10 216 0T126 35T63 102T40 207Q40 271 67 310T138 370Q110 394 90 431T70 521Q70 607 131 662T319 718Q447 718 506 667T565 521Q565 473 545 434T496 372Q538 351 566 310T595 207Q595
123 557 76T457 10T321 -10ZM321 416Q370 416 394 436T418 490Q418 531 396 554T321 578Q276 578 248 558T219 500Q219 469 234 451T273 424T321 416ZM321 130Q375 130 411 148T448 203Q448 255 397 286T242 319Q222 304 209 281T195 231Q195 176 231 153T321 130Z"
/>
<glyph unicode="9" glyph-name="nine" horiz-adv-x="647" d="M289 -10Q249 -10 225 -7T180 1L58 74L117 192L278 129Q319 129 356 147T419 204T448 302L284 272Q213 272 158 292T72 359T40 490Q40 547 69 599T158 685T306 718Q394 718 461 682T568 567T607 354Q607
238 567 157T456 33T289 -10ZM284 397Q329 397 376 400T448 407Q442 576 306 576Q245 576 217 546T189 474Q189 434 212 416T284 397Z" />
<glyph unicode=":" glyph-name="colon" horiz-adv-x="280" d="M140 290L50 380L140 470L230 380L140 290ZM140 -10L50 80L140 170L230 80L140 -10Z" />
<glyph unicode=";" glyph-name="semicolon" horiz-adv-x="280" d="M96 -215L70 -206L120 0L60 80L140 157L240 70L96 -215ZM140 290L50 380L140 470L230 380L140 290Z" />
<glyph unicode="&lt;" glyph-name="less" horiz-adv-x="440" d="M390 110V190L46 300L390 410V490L-30 340V260L390 110Z" />
<glyph unicode="=" glyph-name="equal" horiz-adv-x="520" d="M50 416V496H470V416H50ZM50 360V440H470V360H50Z" />
<glyph unicode="&gt;" glyph-name="greater" horiz-adv-x="520" d="M50 110V190L394 300L50 410V490L470 340V260L50 110Z" />
<glyph unicode="?" glyph-name="question" horiz-adv-x="526" d="M223 217L159 281L271 387Q300 416 318 447T337 512Q337 586 238 586L100 543L50 648Q66 661 96 677T166 705T253 718Q370 718 423 666T476 533Q476 481 454 441T403 372T353 325L223 217ZM223
-10L133 80L223 170L313 80L223 -10Z" />
<glyph unicode="@" glyph-name="at" horiz-adv-x="891" d="M450 -132Q321 -132 227 -81T81 66T30 298Q30 425 85 516T239 658T468 708Q598 708 685 657T816 520T861 328Q861 198 811 127T678 55Q632 55 598 77T550 147Q542 132 521 116T469 88T403 77Q360 77 326
95T273 157T253 271V296Q253 399 294 444T403 490Q453 490 484 472T529 434L539 495H621V246Q621 181 638 153T689 125Q712 125 731 143T763 203T776 318Q776 407 746 479T648 595T468 638Q363 638 284 599T160 483T115 298Q115 188 158 108T281 -16T468 -60Q521
-60 552 -54T601 -41T624 -31V-89Q600 -110 552 -121T450 -132ZM448 164Q475 164 490 181T511 226T517 286Q517 343 502 373T452 404Q384 404 384 316V262Q384 213 402 189T448 164Z" />
<glyph unicode="A" glyph-name="A" horiz-adv-x="707" d="M10 0L68 189V286L132 316L262 707H459L620 259L697 117V0H560L500 180H209L156 0H10ZM265 304H455L369 575H348L265 304Z" />
<glyph unicode="B" glyph-name="B" horiz-adv-x="699" d="M80 0V548L60 648L80 708H340Q416 708 471 691T558 634T589 530Q589 490 576 455T530 395Q593 373 626 329T659 212Q659 101 597 51T410 0H80ZM220 423H358Q442 423 442 497Q442 534 425 556T358 578H220V423ZM220
130H400Q453 130 477 154T502 221Q502 262 476 283T390 304H220V130Z" />
<glyph unicode="C" glyph-name="C" horiz-adv-x="668" d="M381 -10Q322 -10 263 7T154 64T74 175T44 354Q44 463 86 544T203 672T371 718Q416 718 457 710T521 692L632 591L562 486L391 574Q335 574 290 547T219 471T192 354Q192 277 219 227T295 153T402 128Q462
128 505 138T577 162T621 186V50Q593 31 536 11T381 -10Z" />
<glyph unicode="D" glyph-name="D" horiz-adv-x="713" d="M80 0V547L60 647L80 708H298Q370 708 436 695T555 644T638 538T669 359Q669 249 638 179T554 69T435 15T298 0H80ZM222 130H328Q432 130 476 191T520 359Q520 465 476 521T328 578H222V130Z" />
<glyph unicode="E" glyph-name="E" horiz-adv-x="617" d="M80 0L60 60L80 160V708H534L584 678L528 568L428 578H218V423H488V298H390L218 308V130H538L617 64L558 0H80Z" />
<glyph unicode="F" glyph-name="F" horiz-adv-x="593" d="M80 0V546L60 648L80 708H535L585 678L539 568L449 578H210L220 423H489V298H408L220 308V159L231 59L220 0H80Z" />
<glyph unicode="G" glyph-name="G" horiz-adv-x="694" d="M393 -10Q321 -10 258 7T146 66T71 177T44 354Q44 447 73 516T151 629T260 696T382 718Q425 718 454 713T516 700L652 611L592 497L392 575Q336 575 291 550T219 475T193 353Q193 232 250 175T402 117Q447
117 466 122T492 129V257H365V385H643L654 325L632 272V32Q621 28 595 18T521 -1T393 -10Z" />
<glyph unicode="H" glyph-name="H" horiz-adv-x="709" d="M70 0V547L60 647L70 708H210V416H499V708H639V332L649 263V0H499V285H210V204L220 0H70Z" />
<glyph unicode="I" glyph-name="I" horiz-adv-x="270" d="M70 0V548L60 648L70 708H210V0H70Z" />
<glyph unicode="J" glyph-name="J" horiz-adv-x="544" d="M241 -10Q212 -10 177 -7T120 0L10 70L70 182L215 118Q289 118 320 160T352 299V548L331 648L342 708H489L490 247Q490 172 461 114T377 23T241 -10Z" />
<glyph unicode="K" glyph-name="K" horiz-adv-x="689" d="M80 0V544L60 645L80 708H220V588L210 399H290L451 708H610V648L412 367L580 159L679 60V0H494L312 285L220 275V120L230 60L220 0H80Z" />
<glyph unicode="L" glyph-name="L" horiz-adv-x="596" d="M80 0L60 60L80 160V708H220V297L210 130H230L449 140L520 150L588 64L539 0H80Z" />
<glyph unicode="M" glyph-name="M" horiz-adv-x="879" d="M80 0V547L60 647L81 707H232L448 287H468L650 707H809L819 647L809 551V0H668L671 85V444H660L626 361L510 100H390L230 444H220V363L230 0H80Z" />
<glyph unicode="N" glyph-name="N" horiz-adv-x="708" d="M80 0V547L60 647L80 707H201L443 355L491 272H501V707H648V647L638 547V0H523L230 432H220V372L230 0H80Z" />
<glyph unicode="O" glyph-name="O" horiz-adv-x="686" d="M343 -10Q287 -10 234 5T137 61T69 172T44 354Q44 465 69 536T137 647T233 702T343 718Q402 718 455 702T551 646T617 535T642 354Q642 244 618 173T551 62T456 6T343 -10ZM343 130Q406 130 438 156T481
233T493 354Q493 425 482 475T438 551T343 578Q281 578 249 551T205 474T194 354Q194 285 205 235T248 157T343 130Z" />
<glyph unicode="P" glyph-name="P" horiz-adv-x="599" d="M80 0V547L60 648L80 708H320Q393 708 451 686T544 610T579 462Q579 368 542 314T440 236T290 213H220V161L230 61L220 0H80ZM220 340H318Q384 340 408 374T432 462Q432 518 407 548T314 578H210L220 340Z" />
<glyph unicode="Q" glyph-name="Q" horiz-adv-x="687" d="M120 0L100 126Q72 161 56 216T40 353Q40 464 65 535T133 646T229 701T339 717Q398 717 451 701T547 645T613 534T638 353Q638 267 618 212T566 121Q549 102 520 83T467 54L469 49L610 9L717 -42L647 -154Q647
-154 624 -144T564 -117T488 -84T415 -53T365 -31Q329 -16 294 -8T201 0H120ZM259 129H338Q391 129 424 158T473 239T489 353Q489 459 451 518T339 577Q266 577 228 517T190 353Q190 306 200 259T227 176T259 129Z" />
<glyph unicode="R" glyph-name="R" horiz-adv-x="638" d="M80 0V547L60 648L80 708H320Q393 708 451 686T544 610T579 462Q579 373 546 320T453 241L482 215L571 111L628 60V0H443L303 213H220V161L230 61L220 0H80ZM220 340H318Q384 340 408 374T432 462Q432
518 407 548T314 578H210L220 340Z" />
<glyph unicode="S" glyph-name="S" horiz-adv-x="556" d="M266 -10Q189 -10 135 10T54 54V192Q89 172 147 150T277 128Q323 128 345 146T368 195Q368 223 350 241T296 274T204 309Q124 338 80 384T36 508Q36 563 60 611T137 688T272 718Q304 718 335 716T389 709L502
626L452 524L269 589Q233 589 210 572T186 522Q186 482 219 461T314 420Q430 382 477 329T524 203Q524 145 500 97T420 19T266 -10Z" />
<glyph unicode="T" glyph-name="T" horiz-adv-x="635" d="M245 0V580L25 570V708H610V570L385 580V160L396 60L385 0H245Z" />
<glyph unicode="U" glyph-name="U" horiz-adv-x="638" d="M319 -10Q216 -10 158 24T75 124T50 287V547L51 648L50 708H192V277Q192 207 220 164T319 120Q390 120 419 160T449 277V708H588V287Q588 193 565 127T483 25T319 -10Z" />
<glyph unicode="V" glyph-name="V" horiz-adv-x="622" d="M224 0L44 549L14 648V708H162L303 152H323L462 708H608V648L578 549L399 0H224Z" />
<glyph unicode="W" glyph-name="W" horiz-adv-x="1066" d="M224 0L44 549L14 648V708H163L308 172H328L434 708H636L720 299L740 172H760L904 708H1052V648L1022 549L844 0H646L542 552H521L500 409L422 0H224Z" />
<glyph unicode="X" glyph-name="X" horiz-adv-x="646" d="M14 0L195 359L24 648V708H193L313 412H333L452 708H632L449 356L622 60V0H456L333 284H313L185 0H14Z" />
<glyph unicode="Y" glyph-name="Y" horiz-adv-x="625" d="M241 0V300L14 648V708H182L302 452H322L441 708H611V648L376 294L382 193V0H241Z" />
<glyph unicode="Z" glyph-name="Z" horiz-adv-x="606" d="M51 0L20 60L382 579H51V708H544V590L233 129H264L586 149V0H51Z" />
<glyph unicode="[" glyph-name="bracketleft" horiz-adv-x="240" d="M210 -140V-40H129V709H210V809H30V-140H210Z" />
<glyph unicode="\" glyph-name="backslash" horiz-adv-x="416" d="M416 -107L111 708H0L306 -107H416Z" />
<glyph unicode="]" glyph-name="bracketright" horiz-adv-x="240" d="M30 -140V-40H111V709H30V809H210V-140H30Z" />
<glyph unicode="^" glyph-name="asciicircum" horiz-adv-x="422" d="M50 470L184 710H244L372 470H312L214 648L110 470H50Z" />
<glyph unicode="_" glyph-name="underscore" horiz-adv-x="520" d="M20 -100V-60H500V-100H20Z" />
<glyph unicode="`" glyph-name="grave" horiz-adv-x="230" d="M159 510L30 662V702H113L200 510H159Z" />
<glyph unicode="a" glyph-name="a" horiz-adv-x="547" d="M190 -10Q123 -10 77 24T30 132Q30 209 79 249T210 290Q270 290 301 280T343 265L350 271Q350 301 345 324T322 359T266 372Q198 372 145 361T60 341V451Q91 462 154 471T290 481Q352 481 391 465T452
420T482 359T491 292V159L511 58L491 -1H360V48L350 53Q342 43 323 28T271 2T190 -10ZM245 101Q288 101 312 109T350 125V144Q350 163 328 182T254 201Q216 201 198 186T180 148Q180 124 197 113T245 101Z" />
<glyph unicode="b" glyph-name="b" horiz-adv-x="552" d="M332 0Q284 0 255 8T214 25T201 34V9H61V557L40 657L61 717H201V556L191 443L201 438Q221 457 250 474T332 492Q421 492 471 435T522 255Q522 163 497 107T428 25T332 0ZM268 106Q308 106 330 126T362
178T372 247Q372 283 365 313T337 362T278 381L201 360V119Q201 119 222 113T268 106Z" />
<glyph unicode="c" glyph-name="c" horiz-adv-x="490" d="M245 -10Q184 -10 135 13T58 91T30 236Q30 329 61 382T146 459T265 482Q311 482 333 479T372 471L450 383L390 304L285 372Q235 372 207 337T179 236Q179 166 209 133T295 100Q332 100 361 108T411 127T439
143V29Q414 16 367 3T245 -10Z" />
<glyph unicode="d" glyph-name="d" horiz-adv-x="561" d="M220 -10Q173 -10 130 14T58 90T30 226Q30 319 60 375T136 456T230 482Q280 482 308 474T350 458L340 647L350 707H491V160L511 60L491 -1H360V48L350 53Q350 53 335 38T291 6T220 -10ZM275 101L350 115V321Q350
344 331 357T275 371Q237 371 217 353T188 304T180 236Q180 181 202 141T275 101Z" />
<glyph unicode="e" glyph-name="e" horiz-adv-x="491" d="M255 -10Q190 -10 139 13T59 90T30 236Q30 325 61 379T143 457T255 482Q322 482 360 467T419 438L469 279L449 217H169Q175 164 207 132T305 100Q359 100 392 113T439 133V29Q409 13 363 2T255 -10ZM168
281L318 301L303 375Q296 379 284 381T261 383Q216 383 192 352T168 281Z" />
<glyph unicode="f" glyph-name="f" horiz-adv-x="400" d="M73 0V354L20 424L73 472Q68 489 66 517T63 564Q63 649 101 702T229 756Q257 756 288 754T343 745L440 684L393 585L258 645Q224 645 208 620T192 556Q192 531 199 506T213 472H373V382H213V162L223 61L213 0H73Z" />
<glyph unicode="g" glyph-name="g" horiz-adv-x="541" d="M261 -243Q236 -243 204 -242T152 -238L40 -179L80 -80L237 -131Q370 -131 370 -10V30L360 35Q348 25 317 9T220 -8Q173 -8 129 15T58 91T30 226Q30 319 58 375T129 458T220 484Q272 484 305 469T350 440V473H491L501
413L490 353L491 1Q491 -115 437 -179T261 -243ZM275 102Q293 102 315 107T350 116V364Q340 367 322 370T285 373Q242 373 219 355T188 305T180 237Q180 200 187 170T216 121T275 102Z" />
<glyph unicode="h" glyph-name="h" horiz-adv-x="563" d="M56 0V548L36 648L56 708H196V546L186 435L196 430Q208 448 240 465T326 483Q416 483 461 432T506 289V159L527 61L506 0H366V293Q366 331 340 351T278 372L196 343V0H56Z" />
<glyph unicode="i" glyph-name="i" horiz-adv-x="250" d="M130 522L23 629L130 736L236 629L130 522ZM60 0V331L39 411L59 472H199V0H60Z" />
<glyph unicode="j" glyph-name="j" horiz-adv-x="345" d="M208 523L101 630L208 737L315 630L208 523ZM99 -243Q81 -243 59 -241T18 -234L-30 -185L10 -96L108 -130Q131 -130 139 -116T146 -78T141 -29V333L120 423L140 473H278V-42Q278 -112 263 -156T209 -222T99 -243Z" />
<glyph unicode="k" glyph-name="k" horiz-adv-x="558" d="M61 0V548L40 648L61 708H201V548L190 279H251L328 472H491V412L380 250L454 160L548 59V0H395L282 185L201 175V0H61Z" />
<glyph unicode="l" glyph-name="l" horiz-adv-x="254" d="M57 0V548L36 648L57 708H197V0H57Z" />
<glyph unicode="m" glyph-name="m" horiz-adv-x="871" d="M40 411L71 472H180V429L189 423Q200 433 219 446T267 471T330 482Q434 482 479 413Q496 438 532 460T634 483Q724 483 769 432T814 289V161L835 61L814 0H675V293Q675 331 655 351T596 372Q557 372 534
350T510 292V292V288V0H370V292Q370 330 354 350T302 371L200 352V0H60V301L40 411Z" />
<glyph unicode="n" glyph-name="n" horiz-adv-x="567" d="M60 0V301L40 411L71 472H180V429L189 423Q200 433 219 446T267 471T330 482Q420 482 465 431T510 288V161L531 61L510 0H370V292Q370 330 354 350T302 371L200 352V0H60Z" />
<glyph unicode="o" glyph-name="o" horiz-adv-x="531" d="M266 -10Q144 -10 87 54T30 236Q30 355 87 418T266 482Q392 482 446 419T501 236Q501 118 447 54T266 -10ZM266 90Q307 90 333 122T360 236Q360 318 334 350T266 382Q224 382 198 350T171 236Q171 154
198 122T266 90Z" />
<glyph unicode="p" glyph-name="p" horiz-adv-x="551" d="M60 -243V302L40 412L71 473H180V430L190 425Q190 425 208 440T257 469T331 484Q420 484 470 427T521 247Q521 155 496 99T427 17T331 -8Q279 -8 245 1T200 15V-243H60ZM266 98Q305 98 328 117T361 169T371
238Q371 274 363 305T335 354T276 373L200 352V111Q200 111 220 105T266 98Z" />
<glyph unicode="q" glyph-name="q" horiz-adv-x="551" d="M340 -245L350 -32L360 38L350 43Q350 43 335 30T291 4T220 -10Q173 -10 130 14T58 90T30 226Q30 319 58 375T129 456T220 482Q268 482 296 471T337 449T350 438V473H491V-95L511 -187L491 -245H340ZM275
101L350 115V321Q350 344 330 357T275 371Q237 371 217 353T188 303T180 235Q180 180 201 141T275 101Z" />
<glyph unicode="r" glyph-name="r" horiz-adv-x="426" d="M61 0V313L40 413L61 473H157L177 450Q177 450 190 458T229 475T290 483Q310 483 330 480T361 472L426 407L371 309L234 378L199 364V0H61Z" />
<glyph unicode="s" glyph-name="s" horiz-adv-x="437" d="M214 -10Q150 -10 108 1T39 26V144Q75 125 121 112T211 98Q262 98 262 131Q262 149 248 158T208 174T149 193Q92 213 61 244T30 341Q30 412 79 447T210 482Q243 482 266 479T308 472L399 422L360 325L210
373Q191 373 180 366T168 345Q168 324 189 314T250 291Q331 267 369 233T407 133Q407 72 360 31T214 -10Z" />
<glyph unicode="t" glyph-name="t" horiz-adv-x="362" d="M203 -10Q135 -10 104 20T73 111V379H10V444L63 493L134 617H212V472H342V372H212V98L342 99V20Q342 20 326 13T280 -2T203 -10Z" />
<glyph unicode="u" glyph-name="u" horiz-adv-x="551" d="M190 -10Q130 -10 98 13T53 79T40 184V473H180V180Q180 139 195 120T248 101Q295 101 322 137T350 221V473H490V161L511 61L490 0H361V49L351 54Q338 41 314 26T258 1T190 -10Z" />
<glyph unicode="v" glyph-name="v" horiz-adv-x="510" d="M166 0L40 342L20 472H170L245 140H265L341 472H490L470 342L336 0H166Z" />
<glyph unicode="w" glyph-name="w" horiz-adv-x="900" d="M177 0L40 342L20 472H170L255 140H275L361 472H540L625 140H645L731 472H880L860 342L722 0H542L460 342H440L357 0H177Z" />
<glyph unicode="x" glyph-name="x" horiz-adv-x="509" d="M20 0L92 159L141 238L30 411V472H170L245 276H265L340 472H489L418 313L370 238L478 60V0H340L265 176H245L170 0H20Z" />
<glyph unicode="y" glyph-name="y" horiz-adv-x="510" d="M101 -243L-40 -193L0 -74L140 -114Q169 -114 189 -97T222 -53T242 1H149L39 343L20 473H170L245 113H265L340 473H490Q490 473 484 442T466 358T439 244T406 118T371 1Q344 -82 312 -136T230 -216T101 -243Z" />
<glyph unicode="z" glyph-name="z" horiz-adv-x="487" d="M20 0V60L277 373H21V473H449V409L256 157L201 100H231L467 120V0H20Z" />
<glyph unicode="{" glyph-name="braceleft" horiz-adv-x="311" d="M281 -140V-40H241Q223 -40 212 -27T201 30V229Q201 274 188 297T161 329T148 338V340Q148 340 161 349T187 385T201 459V639Q201 684 212 696T241 709H281V809H242Q179 809 141 777T102 678V472Q102
434 91 415T62 389T30 382V291Q45 291 62 286T90 264T102 211V-10Q102 -75 140 -107T242 -140H281Z" />
<glyph unicode="|" glyph-name="bar" horiz-adv-x="270" d="M80 -120V708H190V-120H80Z" />
<glyph unicode="}" glyph-name="braceright" horiz-adv-x="311" d="M30 -140V-40H70Q88 -40 99 -27T110 30V229Q110 274 123 297T150 329T163 338V340Q163 340 150 349T124 385T110 459V639Q110 684 99 696T70 709H30V809H69Q132 809 170 777T209 678V472Q209
434 220 415T249 389T281 382V291Q266 291 249 286T221 264T209 211V-10Q209 -75 171 -107T69 -140H30Z" />
<glyph unicode="~" glyph-name="asciitilde" horiz-adv-x="421" d="M290 210Q260 210 234 225T186 260T145 295T110 310L81 220H30Q30 282 55 326T130 370Q157 370 180 355T225 320T268 285T311 270L340 360H391Q391 292 367 251T290 210Z" />
<glyph unicode="&#xa0;" glyph-name="uni00A0" horiz-adv-x="240" />
<glyph unicode="&#xa1;" glyph-name="exclamdown" horiz-adv-x="280" d="M140 370L50 460L140 550L230 460L140 370ZM139 -140L60 -59L131 318H151L219 -60L139 -140Z" />
<glyph unicode="&#xa2;" glyph-name="cent" horiz-adv-x="540" d="M264 -10Q198 -10 145 13T61 90T30 236Q30 329 61 382T145 459T264 482Q269 482 273 482V530H363V476Q415 470 447 458T500 433L460 334Q448 341 421 350T363 366V104Q405 111 440 124T489 143V29Q478
20 445 11T363 -5V-60H273V-10Q269 -10 264 -10ZM159 236Q159 203 168 175T201 128T273 103V370Q226 365 202 345T168 296T159 236Z" />
<glyph unicode="&#xa3;" glyph-name="sterling" horiz-adv-x="706" d="M90 0L80 60L130 160V322L40 318V408L130 404V470H132Q140 588 201 653T373 718Q424 718 452 710T503 692L594 611L534 516L373 594Q323 594 296 561T268 464V400L416 408L417 318L268 326V130H527L598
154L666 64L617 0H90Z" />
<glyph unicode="&#xa4;" glyph-name="currency" horiz-adv-x="539" d="M103 140L50 193L107 241Q65 284 65 357Q65 432 108 477L50 525L103 578L157 513L152 508Q200 532 269 532Q339 532 387 508L382 513L436 578L489 525L430 476Q474 431 474 357Q474 284 432
241L489 193L436 140L382 205L386 209Q339 187 269 187Q200 187 153 209L157 205L103 140ZM269 265Q316 265 337 285T358 357Q358 414 337 434T269 455Q223 455 202 433T180 357Q180 305 201 285T269 265Z" />
<glyph unicode="&#xa5;" glyph-name="yen" horiz-adv-x="720" d="M40 248V338L268 331L233 384L40 378V468L181 464L61 648V708H229L346 458H359H372L488 708H658V648L536 464L679 468L680 378L483 384L447 331L679 338L680 248L425 256L429 193V0H288V256L40 248Z" />
<glyph unicode="&#xa6;" glyph-name="brokenbar" horiz-adv-x="270" d="M80 378V708H190V378H80ZM80 -80V250H190V-80H80Z" />
<glyph unicode="&#xa7;" glyph-name="section" horiz-adv-x="440" d="M205 -95Q133 -95 98 -83T63 -71L94 25Q121 12 146 1T206 -10Q233 -10 250 5T268 45Q268 77 254 104T193 159Q143 190 112 215T65 268T50 335Q50 374 64 399T99 438T136 454V457Q99 476 81
507T62 571Q62 639 104 678T216 718Q245 718 269 716T313 710L375 662L333 584L216 632Q191 632 177 618T162 583Q162 549 184 524T266 464Q316 436 343 407T380 345T390 270Q390 228 374 193T338 143Q349 123 359 105T369 47Q369 14 353 -18T302 -73T205 -95ZM295
199Q298 207 300 217T302 238Q302 282 291 308T254 354Q210 389 180 383T149 343Q149 313 166 293T218 249Q247 230 263 219T295 199Z" />
<glyph unicode="&#xa8;" glyph-name="dieresis" horiz-adv-x="470" d="M130 515L40 605L130 695L220 605L130 515ZM340 515L250 605L340 695L430 605L340 515Z" />
<glyph unicode="&#xa9;" glyph-name="copyright" horiz-adv-x="816" d="M408 -10Q295 -10 215 36T93 163T50 343Q50 442 92 522T215 651T408 699Q521 699 601 651T723 523T766 343Q766 243 724 163T601 37T408 -10ZM408 52Q500 52 563 89T660 193T693 343Q693
427 660 493T564 598T408 637Q318 637 255 599T157 494T123 343Q123 259 157 193T254 90T408 52ZM407 175Q362 175 326 192T270 248T249 355Q249 423 272 462T334 518T421 535Q455 535 471 533T500 527L557 463L513 405L436 455Q399 455 379 429T358 355Q358 255
443 255Q484 255 512 268T549 287V203Q531 193 496 184T407 175Z" />
<glyph unicode="&#xaa;" glyph-name="ordfeminine" horiz-adv-x="311" d="M110 475Q77 475 54 492T30 546Q30 585 55 605T120 625Q150 625 166 620T187 613L190 616Q190 639 184 652T148 666Q114 666 88 661T45 651V706Q61 711 92 716T160 721Q202 721 223 707T253
671T261 626V560L271 509L261 480H195V504L190 507Q184 499 165 487T110 475ZM138 531Q159 531 171 535T190 543V552Q190 562 179 571T142 581Q105 581 105 554Q105 531 138 531Z" />
<glyph unicode="&#xab;" glyph-name="guillemotleft" horiz-adv-x="460" d="M270 130L140 300L270 470H170L40 300L170 130H270ZM420 130L290 300L420 470H320L190 300L320 130H420Z" />
<glyph unicode="&#xac;" glyph-name="logicalnot" horiz-adv-x="606" d="M455 200V280H50V380H556V200H455Z" />
<glyph unicode="&#xad;" glyph-name="uni00AD" horiz-adv-x="380" d="M50 200V300H370V200H50Z" />
<glyph unicode="&#xae;" glyph-name="registered" horiz-adv-x="379" d="M189 406Q114 406 72 451T30 562Q30 606 49 642T103 699T189 721Q240 721 275 700T330 642T349 562Q349 496 307 451T189 406ZM189 433Q250 433 283 469T316 562Q316 618 283 655T189 693Q129
693 96 656T63 562Q63 506 96 470T189 433ZM139 485V604L135 626L139 639H192Q215 639 231 628T248 586Q248 566 241 555T221 538L227 532L246 509L259 498V485H218L188 531H170V520L172 498L170 485H139ZM170 559H191Q206 559 211 566T216 586Q216 598 211 604T190
611H168L170 559Z" />
<glyph unicode="&#xaf;" glyph-name="overscore" horiz-adv-x="400" d="M30 570V630H370V570H30Z" />
<glyph unicode="&#xb0;" glyph-name="degree" horiz-adv-x="340" d="M170 450Q132 450 100 469T49 520T30 590Q30 629 49 660T100 711T170 730Q209 730 240 711T291 661T310 590Q310 552 291 520T241 469T170 450ZM170 500Q207 500 233 526T260 590Q260 627 234
653T170 680Q133 680 107 654T80 590Q80 553 106 527T170 500Z" />
<glyph unicode="&#xb1;" glyph-name="plusminus" horiz-adv-x="520" d="M50 20V100H470V20H50ZM220 90V260H50V340H220V510H300V340H470V260H300V90H220Z" />
<glyph unicode="&#xb2;" glyph-name="uni00B2" horiz-adv-x="330" d="M35 445V490Q35 490 54 505T100 543T147 585Q179 615 195 639T212 692Q212 712 200 723T159 734Q128 734 97 725T45 705V775Q53 779 83 791T165 803Q228 803 259 776T290 698Q290 657 268 624T215
565T153 520L156 510L290 520V445H35Z" />
<glyph unicode="&#xb3;" glyph-name="uni00B3" horiz-adv-x="340" d="M165 440Q134 440 108 444L40 467L60 537L155 510Q190 510 205 523T220 559Q220 575 211 584T180 594H117V659H168Q215 659 215 701Q215 734 169 734Q126 734 98 723T55 706V776Q70 785 97
794T169 804Q226 804 255 779T284 709Q284 683 276 666T255 640Q276 626 288 607T300 560Q300 503 263 472T165 440Z" />
<glyph unicode="&#xb4;" glyph-name="acute" horiz-adv-x="228" d="M30 510L116 702H198V662L70 510H30Z" />
<glyph unicode="&#xb5;" glyph-name="uni00B5" horiz-adv-x="594" d="M190 -10Q137 -10 104 9Q118 -30 128 -63T138 -130Q138 -161 128 -175T88 -190Q61 -190 51 -171T40 -119V473H180V180Q180 139 195 120T248 101Q295 101 322 137T350 221V473H490V161L511 61L490
0H361V49L351 54Q338 41 314 26T258 1T190 -10Z" />
<glyph unicode="&#xb6;" glyph-name="paragraph" horiz-adv-x="525" d="M166 -79V471Q115 471 83 499T50 584V592Q50 642 66 666T118 699T206 708H475V-79H365V618H276V-79H166Z" />
<glyph unicode="&#xb7;" glyph-name="middot" horiz-adv-x="280" d="M140 240L50 330L140 420L230 330L140 240Z" />
<glyph unicode="&#xb8;" glyph-name="cedilla" horiz-adv-x="270" d="M124 -220Q75 -220 48 -208T20 -195V-135Q20 -135 34 -141T73 -153T126 -160Q146 -160 160 -147T175 -118L80 -70L110 0H169L159 -42L260 -100Q256 -161 219 -190T124 -220Z" />
<glyph unicode="&#xb9;" glyph-name="uni00B9" horiz-adv-x="182" d="M90 445V715H30V769L162 799L167 769L162 719V445H90Z" />
<glyph unicode="&#xba;" glyph-name="ordmasculine" horiz-adv-x="296" d="M148 475Q87 475 59 507T30 598Q30 657 58 689T148 721Q211 721 238 689T266 598Q266 539 239 507T148 475ZM148 525Q168 525 181 541T195 598Q195 639 182 655T148 671Q127 671 114 655T101
598Q101 558 114 542T148 525Z" />
<glyph unicode="&#xbb;" glyph-name="guillemotright" horiz-adv-x="480" d="M40 130L170 300L40 470H140L270 300L140 130H40ZM210 130L340 300L210 470H310L440 300L310 130H210Z" />
<glyph unicode="&#xbc;" glyph-name="onequarter" horiz-adv-x="807" d="M90 285V555H30V609L162 639L167 609L162 559V285H90ZM42 -80L526 708H600L116 -80H42ZM661 0V50H470V101L633 354H733L743 324L733 274V116H798V55L733 50V0H661ZM562 116H661V265H652L562 116Z" />
<glyph unicode="&#xbd;" glyph-name="onehalf" horiz-adv-x="753" d="M90 285V555H30V609L162 639L167 609L162 559V285H90ZM42 -80L526 708H600L116 -80H42ZM478 0V45Q478 45 497 60T543 98T590 140Q622 170 638 194T655 247Q655 267 643 278T602 289Q570 289
539 280T488 260V330Q496 333 526 345T608 358Q671 358 702 331T733 253Q733 212 711 179T657 120T596 75L599 65L733 75V0H478Z" />
<glyph unicode="&#xbe;" glyph-name="threequarters" horiz-adv-x="925" d="M145 285Q129 285 115 286T88 289L20 312L40 382L135 355Q171 355 185 368T200 404Q200 420 191 429T160 439H97V504H148Q195 504 195 546Q195 579 149 579Q120 579 98 574T61 562T35
551V621Q50 630 77 639T149 649Q206 649 235 624T264 554Q264 528 256 512T235 485Q257 471 268 453T280 405Q280 367 263 340T216 299T145 285ZM160 -80L644 708H718L234 -80H160ZM779 0V50H588V101L751 354H851L861 324L851 274V116H916V55L851 50V0H779ZM680
116H779V265H770L680 116Z" />
<glyph unicode="&#xbf;" glyph-name="questiondown" horiz-adv-x="526" d="M288 413L198 503L288 593L378 503L288 413ZM243 -130Q143 -130 97 -85T50 26Q50 76 72 129T145 234Q168 257 197 282T253 330T290 362L349 288Q349 288 334 274T301 243T273 216Q235
176 209 141T182 62Q182 33 204 17T268 0Q322 0 361 16T416 43L476 -50Q460 -66 432 -84T358 -116T243 -130Z" />
<glyph unicode="&#xc0;" glyph-name="Agrave" horiz-adv-x="707" d="M10 0L68 189V286L132 316L262 707H459L620 259L697 117V0H560L500 180H209L156 0H10ZM265 304H455L369 575H348L265 304ZM360 750L231 902V942H314L401 750H360Z" />
<glyph unicode="&#xc1;" glyph-name="Aacute" horiz-adv-x="707" d="M10 0L68 189V286L132 316L262 707H459L620 259L697 117V0H560L500 180H209L156 0H10ZM265 304H455L369 575H348L265 304ZM295 747L381 939H463V899L335 747H295Z" />
<glyph unicode="&#xc2;" glyph-name="Acircumflex" horiz-adv-x="707" d="M10 0L68 189V286L132 316L262 707H459L620 259L697 117V0H560L500 180H209L156 0H10ZM265 304H455L369 575H348L265 304ZM184 770L314 910H374L502 770H442L344 848L244 770H184Z" />
<glyph unicode="&#xc3;" glyph-name="Atilde" horiz-adv-x="707" d="M10 0L68 189V286L132 316L262 707H459L620 259L697 117V0H560L500 180H209L156 0H10ZM265 304H455L369 575H348L265 304ZM429 760Q399 760 373 775T325 810T284 845T249 860L220 770H169Q169
832 194 876T269 920Q296 920 319 905T364 870T407 835T450 820L479 910H530Q530 842 506 801T429 760Z" />
<glyph unicode="&#xc4;" glyph-name="Adieresis" horiz-adv-x="707" d="M10 0L68 189V286L132 316L262 707H459L620 259L697 117V0H560L500 180H209L156 0H10ZM265 304H455L369 575H348L265 304ZM243 755L153 845L243 935L333 845L243 755ZM453 755L363 845L453
935L543 845L453 755Z" />
<glyph unicode="&#xc5;" glyph-name="Aring" horiz-adv-x="707" d="M10 0L68 189V286L132 316L262 707H459L620 259L697 117V0H560L500 180H209L156 0H10ZM265 304H455L369 575H348L265 304ZM350 770Q309 770 280 799T250 870Q250 911 279 940T350 970Q391 970
420 941T450 870Q450 829 421 800T350 770ZM350 830Q367 830 378 842T390 870Q390 887 379 898T350 910Q334 910 322 899T310 870Q310 854 322 842T350 830Z" />
<glyph unicode="&#xc6;" glyph-name="AE" horiz-adv-x="1007" d="M10 0L68 189L58 296L132 316L262 727L366 707H460V708H914L964 678L908 568L808 578H598V423H868V298H770L598 308V130H918L997 64L938 0H460L440 60L460 160V180H209L156 0H10ZM269 314L460 298V586H348L269
314Z" />
<glyph unicode="&#xc7;" glyph-name="Ccedilla" horiz-adv-x="668" d="M381 -10Q322 -10 263 7T154 64T74 175T44 354Q44 463 86 544T203 672T371 718Q416 718 457 710T521 692L632 591L562 486L391 574Q335 574 290 547T219 471T192 354Q192 277 219 227T295
153T402 128Q462 128 505 138T577 162T621 186V50Q593 31 536 11T381 -10ZM358 -220Q309 -220 282 -208T254 -195V-135Q254 -135 268 -141T307 -153T360 -160Q380 -160 394 -147T409 -118L314 -70L344 0H403L393 -42L494 -100Q490 -161 453 -190T358 -220Z" />
<glyph unicode="&#xc8;" glyph-name="Egrave" horiz-adv-x="617" d="M80 0L60 60L80 160V708H534L584 678L528 568L428 578H218V423H488V298H390L218 308V130H538L617 64L558 0H80ZM355 752L226 904V944H309L396 752H355Z" />
<glyph unicode="&#xc9;" glyph-name="Eacute" horiz-adv-x="617" d="M80 0L60 60L80 160V708H534L584 678L528 568L428 578H218V423H488V298H390L218 308V130H538L617 64L558 0H80ZM290 749L376 941H458V901L330 749H290Z" />
<glyph unicode="&#xca;" glyph-name="Ecircumflex" horiz-adv-x="617" d="M80 0L60 60L80 160V708H534L584 678L528 568L428 578H218V423H488V298H390L218 308V130H538L617 64L558 0H80ZM179 772L309 912H369L497 772H437L339 850L239 772H179Z" />
<glyph unicode="&#xcb;" glyph-name="Edieresis" horiz-adv-x="617" d="M80 0L60 60L80 160V708H534L584 678L528 568L428 578H218V423H488V298H390L218 308V130H538L617 64L558 0H80ZM238 757L148 847L238 937L328 847L238 757ZM448 757L358 847L448 937L538
847L448 757Z" />
<glyph unicode="&#xcc;" glyph-name="Igrave" horiz-adv-x="270" d="M70 0V548L60 648L70 708H210V0H70ZM147 752L18 904V944H101L188 752H147Z" />
<glyph unicode="&#xcd;" glyph-name="Iacute" horiz-adv-x="270" d="M70 0V548L60 648L70 708H210V0H70ZM82 749L168 941H250V901L122 749H82Z" />
<glyph unicode="&#xce;" glyph-name="Icircumflex" horiz-adv-x="270" d="M70 0V548L60 648L70 708H210V0H70ZM-29 772L101 912H161L289 772H229L131 850L31 772H-29Z" />
<glyph unicode="&#xcf;" glyph-name="Idieresis" horiz-adv-x="270" d="M70 0V548L60 648L70 708H210V0H70ZM30 757L-60 847L30 937L120 847L30 757ZM240 757L150 847L240 937L330 847L240 757Z" />
<glyph unicode="&#xd0;" glyph-name="Eth" horiz-adv-x="713" d="M80 0V547L60 647L80 708H298Q370 708 436 695T555 644T638 538T669 359Q669 249 638 179T554 69T435 15T298 0H80ZM222 130H328Q432 130 476 191T520 359Q520 465 476 521T328 578H222V130ZM-3
330L-2 390H328V330H-3Z" />
<glyph unicode="&#xd1;" glyph-name="Ntilde" horiz-adv-x="708" d="M80 0V547L60 647L80 707H201L443 355L491 272H501V707H648V647L638 547V0H523L230 432H220V372L230 0H80ZM455 762Q425 762 399 777T351 812T310 847T275 862L246 772H195Q195 834 220 878T295
922Q322 922 345 907T390 872T433 837T476 822L505 912H556Q556 844 532 803T455 762Z" />
<glyph unicode="&#xd2;" glyph-name="Ograve" horiz-adv-x="686" d="M343 -10Q287 -10 234 5T137 61T69 172T44 354Q44 465 69 536T137 647T233 702T343 718Q402 718 455 702T551 646T617 535T642 354Q642 244 618 173T551 62T456 6T343 -10ZM343 130Q406 130
438 156T481 233T493 354Q493 425 482 475T438 551T343 578Q281 578 249 551T205 474T194 354Q194 285 205 235T248 157T343 130ZM353 772L224 924V964H307L394 772H353Z" />
<glyph unicode="&#xd3;" glyph-name="Oacute" horiz-adv-x="686" d="M343 -10Q287 -10 234 5T137 61T69 172T44 354Q44 465 69 536T137 647T233 702T343 718Q402 718 455 702T551 646T617 535T642 354Q642 244 618 173T551 62T456 6T343 -10ZM343 130Q406 130
438 156T481 233T493 354Q493 425 482 475T438 551T343 578Q281 578 249 551T205 474T194 354Q194 285 205 235T248 157T343 130ZM288 769L374 961H456V921L328 769H288Z" />
<glyph unicode="&#xd4;" glyph-name="Ocircumflex" horiz-adv-x="686" d="M343 -10Q287 -10 234 5T137 61T69 172T44 354Q44 465 69 536T137 647T233 702T343 718Q402 718 455 702T551 646T617 535T642 354Q642 244 618 173T551 62T456 6T343 -10ZM343 130Q406
130 438 156T481 233T493 354Q493 425 482 475T438 551T343 578Q281 578 249 551T205 474T194 354Q194 285 205 235T248 157T343 130ZM177 792L307 932H367L495 792H435L337 870L237 792H177Z" />
<glyph unicode="&#xd5;" glyph-name="Otilde" horiz-adv-x="686" d="M343 -10Q287 -10 234 5T137 61T69 172T44 354Q44 465 69 536T137 647T233 702T343 718Q402 718 455 702T551 646T617 535T642 354Q642 244 618 173T551 62T456 6T343 -10ZM343 130Q406 130
438 156T481 233T493 354Q493 425 482 475T438 551T343 578Q281 578 249 551T205 474T194 354Q194 285 205 235T248 157T343 130ZM422 782Q392 782 366 797T318 832T277 867T242 882L213 792H162Q162 854 187 898T262 942Q289 942 312 927T357 892T400 857T443
842L472 932H523Q523 864 499 823T422 782Z" />
<glyph unicode="&#xd6;" glyph-name="Odieresis" horiz-adv-x="686" d="M343 -10Q287 -10 234 5T137 61T69 172T44 354Q44 465 69 536T137 647T233 702T343 718Q402 718 455 702T551 646T617 535T642 354Q642 244 618 173T551 62T456 6T343 -10ZM343 130Q406 130
438 156T481 233T493 354Q493 425 482 475T438 551T343 578Q281 578 249 551T205 474T194 354Q194 285 205 235T248 157T343 130ZM236 777L146 867L236 957L326 867L236 777ZM446 777L356 867L446 957L536 867L446 777Z" />
<glyph unicode="&#xd7;" glyph-name="multiply" horiz-adv-x="484" d="M377 100L242 236L107 101L50 157L185 292L51 427L107 483L242 349L377 484L433 427L298 292L434 157L377 100Z" />
<glyph unicode="&#xd8;" glyph-name="Oslash" horiz-adv-x="686" d="M343 -10Q287 -10 234 5T137 61T69 172T44 354Q44 465 69 536T137 647T233 702T343 718Q402 718 455 702T551 646T617 535T642 354Q642 244 618 173T551 62T456 6T343 -10ZM343 130Q406 130
438 156T481 233T493 354Q493 425 482 475T438 551T343 578Q281 578 249 551T205 474T194 354Q194 285 205 235T248 157T343 130ZM70 -31L554 757H627L143 -31H70Z" />
<glyph unicode="&#xd9;" glyph-name="Ugrave" horiz-adv-x="638" d="M319 -10Q216 -10 158 24T75 124T50 287V547L51 648L50 708H192V277Q192 207 220 164T319 120Q390 120 419 160T449 277V708H588V287Q588 193 565 127T483 25T319 -10ZM339 752L210 904V944H293L380
752H339Z" />
<glyph unicode="&#xda;" glyph-name="Uacute" horiz-adv-x="638" d="M319 -10Q216 -10 158 24T75 124T50 287V547L51 648L50 708H192V277Q192 207 220 164T319 120Q390 120 419 160T449 277V708H588V287Q588 193 565 127T483 25T319 -10ZM274 749L360 941H442V901L314
749H274Z" />
<glyph unicode="&#xdb;" glyph-name="Ucircumflex" horiz-adv-x="638" d="M319 -10Q216 -10 158 24T75 124T50 287V547L51 648L50 708H192V277Q192 207 220 164T319 120Q390 120 419 160T449 277V708H588V287Q588 193 565 127T483 25T319 -10ZM163 772L293 912H353L481
772H421L323 850L223 772H163Z" />
<glyph unicode="&#xdc;" glyph-name="Udieresis" horiz-adv-x="638" d="M319 -10Q216 -10 158 24T75 124T50 287V547L51 648L50 708H192V277Q192 207 220 164T319 120Q390 120 419 160T449 277V708H588V287Q588 193 565 127T483 25T319 -10ZM222 757L132 847L222
937L312 847L222 757ZM432 757L342 847L432 937L522 847L432 757Z" />
<glyph unicode="&#xdd;" glyph-name="Yacute" horiz-adv-x="625" d="M241 0V300L14 648V708H182L302 452H322L441 708H611V648L376 294L382 193V0H241ZM261 747L347 939H429V899L301 747H261Z" />
<glyph unicode="&#xde;" glyph-name="Thorn" horiz-adv-x="639" d="M60 0V708H200V608H330Q403 608 461 586T554 510T589 362Q589 268 552 214T450 136T300 113H200V0H60ZM200 240H308Q363 240 391 255T431 299T442 362Q442 399 431 425T389 464T304 478H200V240Z" />
<glyph unicode="&#xdf;" glyph-name="germandbls" horiz-adv-x="661" d="M40 342V472H107V478Q107 595 168 656T329 718Q390 718 428 699T483 648T501 578Q501 541 494 516T479 471T463 434T456 393Q456 369 471 351T521 312Q578 278 604 238T631 148Q631 109
615 73T564 14T471 -10Q442 -10 418 -7T374 0L291 41L331 141L443 92Q463 92 476 107T489 143Q489 170 478 187T446 218T399 250Q362 274 345 300T328 359Q328 399 341 434T366 500T379 559Q379 585 367 601T321 618Q276 618 252 584T228 491V0H107V342H40Z" />
<glyph unicode="&#xe0;" glyph-name="agrave" horiz-adv-x="547" d="M190 -10Q123 -10 77 24T30 132Q30 209 79 249T210 290Q270 290 301 280T343 265L350 271Q350 301 345 324T322 359T266 372Q198 372 145 361T60 341V451Q91 462 154 471T290 481Q352 481 391
465T452 420T482 359T491 292V159L511 58L491 -1H360V48L350 53Q342 43 323 28T271 2T190 -10ZM245 101Q288 101 312 109T350 125V144Q350 163 328 182T254 201Q216 201 198 186T180 148Q180 124 197 113T245 101ZM279 510L150 662V702H233L320 510H279Z" />
<glyph unicode="&#xe1;" glyph-name="aacute" horiz-adv-x="547" d="M190 -10Q123 -10 77 24T30 132Q30 209 79 249T210 290Q270 290 301 280T343 265L350 271Q350 301 345 324T322 359T266 372Q198 372 145 361T60 341V451Q91 462 154 471T290 481Q352 481 391
465T452 420T482 359T491 292V159L511 58L491 -1H360V48L350 53Q342 43 323 28T271 2T190 -10ZM245 101Q288 101 312 109T350 125V144Q350 163 328 182T254 201Q216 201 198 186T180 148Q180 124 197 113T245 101ZM214 507L300 699H382V659L254 507H214Z" />
<glyph unicode="&#xe2;" glyph-name="acircumflex" horiz-adv-x="547" d="M190 -10Q123 -10 77 24T30 132Q30 209 79 249T210 290Q270 290 301 280T343 265L350 271Q350 301 345 324T322 359T266 372Q198 372 145 361T60 341V451Q91 462 154 471T290 481Q352 481
391 465T452 420T482 359T491 292V159L511 58L491 -1H360V48L350 53Q342 43 323 28T271 2T190 -10ZM245 101Q288 101 312 109T350 125V144Q350 163 328 182T254 201Q216 201 198 186T180 148Q180 124 197 113T245 101ZM103 530L233 670H293L421 530H361L263 608L163
530H103Z" />
<glyph unicode="&#xe3;" glyph-name="atilde" horiz-adv-x="547" d="M190 -10Q123 -10 77 24T30 132Q30 209 79 249T210 290Q270 290 301 280T343 265L350 271Q350 301 345 324T322 359T266 372Q198 372 145 361T60 341V451Q91 462 154 471T290 481Q352 481 391
465T452 420T482 359T491 292V159L511 58L491 -1H360V48L350 53Q342 43 323 28T271 2T190 -10ZM245 101Q288 101 312 109T350 125V144Q350 163 328 182T254 201Q216 201 198 186T180 148Q180 124 197 113T245 101ZM348 520Q318 520 292 535T244 570T203 605T168
620L139 530H88Q88 592 113 636T188 680Q215 680 238 665T283 630T326 595T369 580L398 670H449Q449 602 425 561T348 520Z" />
<glyph unicode="&#xe4;" glyph-name="adieresis" horiz-adv-x="547" d="M190 -10Q123 -10 77 24T30 132Q30 209 79 249T210 290Q270 290 301 280T343 265L350 271Q350 301 345 324T322 359T266 372Q198 372 145 361T60 341V451Q91 462 154 471T290 481Q352 481
391 465T452 420T482 359T491 292V159L511 58L491 -1H360V48L350 53Q342 43 323 28T271 2T190 -10ZM245 101Q288 101 312 109T350 125V144Q350 163 328 182T254 201Q216 201 198 186T180 148Q180 124 197 113T245 101ZM162 515L72 605L162 695L252 605L162 515ZM372
515L282 605L372 695L462 605L372 515Z" />
<glyph unicode="&#xe5;" glyph-name="aring" horiz-adv-x="547" d="M190 -10Q123 -10 77 24T30 132Q30 209 79 249T210 290Q270 290 301 280T343 265L350 271Q350 301 345 324T322 359T266 372Q198 372 145 361T60 341V451Q91 462 154 471T290 481Q352 481 391
465T452 420T482 359T491 292V159L511 58L491 -1H360V48L350 53Q342 43 323 28T271 2T190 -10ZM245 101Q288 101 312 109T350 125V144Q350 163 328 182T254 201Q216 201 198 186T180 148Q180 124 197 113T245 101ZM269 530Q228 530 199 559T169 630Q169 671 198
700T269 730Q310 730 339 701T369 630Q369 589 340 560T269 530ZM269 590Q286 590 297 602T309 630Q309 647 298 658T269 670Q253 670 241 659T229 630Q229 614 241 602T269 590Z" />
<glyph unicode="&#xe6;" glyph-name="ae" horiz-adv-x="829" d="M200 -10Q156 -10 117 4T54 50T30 132Q30 182 55 215T121 264T210 280Q262 280 293 269T343 245L350 251Q350 281 345 309T322 354T266 372Q211 372 158 362T60 341V451Q91 462 143 471T280 481Q330
481 365 468T426 433Q456 459 494 470T575 482Q642 482 680 467T739 438L789 279L769 217H490Q490 214 490 211Q497 160 529 130T625 100Q679 100 712 113T759 133V29Q729 13 683 2T575 -10Q523 -10 480 4T405 52V52Q368 26 320 8T200 -10ZM581 383Q542 383 519
358T490 300Q490 291 491 281L638 301L623 375Q616 379 604 381T581 383ZM245 91Q288 91 312 99T350 115V134Q350 161 325 181T254 201Q216 201 198 186T180 143Q180 119 196 105T245 91Z" />
<glyph unicode="&#xe7;" glyph-name="ccedilla" horiz-adv-x="490" d="M245 -10Q184 -10 135 13T58 91T30 236Q30 329 61 382T146 459T265 482Q311 482 333 479T372 471L450 383L390 304L285 372Q235 372 207 337T179 236Q179 166 209 133T295 100Q332 100 361
108T411 127T439 143V29Q414 16 367 3T245 -10ZM277 -220Q228 -220 201 -208T173 -195V-135Q173 -135 187 -141T226 -153T279 -160Q299 -160 313 -147T328 -118L233 -70L263 0H322L312 -42L413 -100Q409 -161 372 -190T277 -220Z" />
<glyph unicode="&#xe8;" glyph-name="egrave" horiz-adv-x="491" d="M255 -10Q190 -10 139 13T59 90T30 236Q30 325 61 379T143 457T255 482Q322 482 360 467T419 438L469 279L449 217H169Q175 164 207 132T305 100Q359 100 392 113T439 133V29Q409 13 363 2T255
-10ZM168 281L318 301L303 375Q296 379 284 381T261 383Q216 383 192 352T168 281ZM266 522L137 674V714H220L307 522H266Z" />
<glyph unicode="&#xe9;" glyph-name="eacute" horiz-adv-x="491" d="M255 -10Q190 -10 139 13T59 90T30 236Q30 325 61 379T143 457T255 482Q322 482 360 467T419 438L469 279L449 217H169Q175 164 207 132T305 100Q359 100 392 113T439 133V29Q409 13 363 2T255
-10ZM168 281L318 301L303 375Q296 379 284 381T261 383Q216 383 192 352T168 281ZM201 519L287 711H369V671L241 519H201Z" />
<glyph unicode="&#xea;" glyph-name="ecircumflex" horiz-adv-x="491" d="M255 -10Q190 -10 139 13T59 90T30 236Q30 325 61 379T143 457T255 482Q322 482 360 467T419 438L469 279L449 217H169Q175 164 207 132T305 100Q359 100 392 113T439 133V29Q409 13 363
2T255 -10ZM168 281L318 301L303 375Q296 379 284 381T261 383Q216 383 192 352T168 281ZM90 542L220 682H280L408 542H348L250 620L150 542H90Z" />
<glyph unicode="&#xeb;" glyph-name="edieresis" horiz-adv-x="491" d="M255 -10Q190 -10 139 13T59 90T30 236Q30 325 61 379T143 457T255 482Q322 482 360 467T419 438L469 279L449 217H169Q175 164 207 132T305 100Q359 100 392 113T439 133V29Q409 13 363
2T255 -10ZM168 281L318 301L303 375Q296 379 284 381T261 383Q216 383 192 352T168 281ZM149 527L59 617L149 707L239 617L149 527ZM359 527L269 617L359 707L449 617L359 527Z" />
<glyph unicode="&#xec;" glyph-name="igrave" horiz-adv-x="230" d="M61 0V331L40 411L60 472H200V0H61ZM136 510L7 662V702H90L177 510H136Z" />
<glyph unicode="&#xed;" glyph-name="iacute" horiz-adv-x="230" d="M61 0V331L40 411L60 472H200V0H61ZM71 507L157 699H239V659L111 507H71Z" />
<glyph unicode="&#xee;" glyph-name="icircumflex" horiz-adv-x="230" d="M61 0V331L40 411L60 472H200V0H61ZM-40 530L90 670H150L278 530H218L120 608L20 530H-40Z" />
<glyph unicode="&#xef;" glyph-name="idieresis" horiz-adv-x="230" d="M61 0V331L40 411L60 472H200V0H61ZM19 515L-71 605L19 695L109 605L19 515ZM229 515L139 605L229 695L319 605L229 515Z" />
<glyph unicode="&#xf0;" glyph-name="eth" horiz-adv-x="546" d="M253 -10Q151 -10 101 52T50 223Q50 330 99 392T232 455Q273 455 301 446T344 425T364 407Q364 450 356 487T329 555L275 500L220 554L277 611Q247 633 204 644T105 656H30V737Q48 743 68 747T118
753T197 756Q248 756 291 742T368 703L415 750L470 696L422 648Q496 546 496 374Q496 191 434 91T253 -10ZM260 81Q287 81 308 103T342 165T354 252Q354 294 333 324T270 355Q221 355 202 314T182 203Q182 145 205 113T260 81Z" />
<glyph unicode="&#xf1;" glyph-name="ntilde" horiz-adv-x="567" d="M60 0V301L40 411L71 472H180V429L189 423Q200 433 219 446T267 471T330 482Q420 482 465 431T510 288V161L531 61L510 0H370V292Q370 330 354 350T302 371L200 352V0H60ZM372 520Q342 520 316
535T268 570T227 605T192 620L163 530H112Q112 592 137 636T212 680Q239 680 262 665T307 630T350 595T393 580L422 670H473Q473 602 449 561T372 520Z" />
<glyph unicode="&#xf2;" glyph-name="ograve" horiz-adv-x="531" d="M266 -10Q144 -10 87 54T30 236Q30 355 87 418T266 482Q392 482 446 419T501 236Q501 118 447 54T266 -10ZM266 90Q307 90 333 122T360 236Q360 318 334 350T266 382Q224 382 198 350T171 236Q171
154 198 122T266 90ZM277 520L148 672V712H231L318 520H277Z" />
<glyph unicode="&#xf3;" glyph-name="oacute" horiz-adv-x="531" d="M266 -10Q144 -10 87 54T30 236Q30 355 87 418T266 482Q392 482 446 419T501 236Q501 118 447 54T266 -10ZM266 90Q307 90 333 122T360 236Q360 318 334 350T266 382Q224 382 198 350T171 236Q171
154 198 122T266 90ZM212 517L298 709H380V669L252 517H212Z" />
<glyph unicode="&#xf4;" glyph-name="ocircumflex" horiz-adv-x="531" d="M266 -10Q144 -10 87 54T30 236Q30 355 87 418T266 482Q392 482 446 419T501 236Q501 118 447 54T266 -10ZM266 90Q307 90 333 122T360 236Q360 318 334 350T266 382Q224 382 198 350T171
236Q171 154 198 122T266 90ZM101 540L231 680H291L419 540H359L261 618L161 540H101Z" />
<glyph unicode="&#xf5;" glyph-name="otilde" horiz-adv-x="531" d="M266 -10Q144 -10 87 54T30 236Q30 355 87 418T266 482Q392 482 446 419T501 236Q501 118 447 54T266 -10ZM266 90Q307 90 333 122T360 236Q360 318 334 350T266 382Q224 382 198 350T171 236Q171
154 198 122T266 90ZM346 530Q316 530 290 545T242 580T201 615T166 630L137 540H86Q86 602 111 646T186 690Q213 690 236 675T281 640T324 605T367 590L396 680H447Q447 612 423 571T346 530Z" />
<glyph unicode="&#xf6;" glyph-name="odieresis" horiz-adv-x="531" d="M266 -10Q144 -10 87 54T30 236Q30 355 87 418T266 482Q392 482 446 419T501 236Q501 118 447 54T266 -10ZM266 90Q307 90 333 122T360 236Q360 318 334 350T266 382Q224 382 198 350T171
236Q171 154 198 122T266 90ZM160 525L70 615L160 705L250 615L160 525ZM370 525L280 615L370 705L460 615L370 525Z" />
<glyph unicode="&#xf7;" glyph-name="divide" horiz-adv-x="538" d="M268 61L193 135L268 209L342 135L268 61ZM268 388L193 462L268 536L342 462L268 388ZM50 260V340H470V260H50Z" />
<glyph unicode="&#xf8;" glyph-name="oslash" horiz-adv-x="531" d="M266 -10Q144 -10 87 54T30 236Q30 355 87 418T266 482Q392 482 446 419T501 236Q501 118 447 54T266 -10ZM266 90Q307 90 333 122T360 236Q360 318 334 350T266 382Q224 382 198 350T171 236Q171
154 198 122T266 90ZM134 104L104 146L246 255L408 380L438 340L285 222L134 104Z" />
<glyph unicode="&#xf9;" glyph-name="ugrave" horiz-adv-x="551" d="M190 -10Q130 -10 98 13T53 79T40 184V473H180V180Q180 139 195 120T248 101Q295 101 322 137T350 221V473H490V161L511 61L490 0H361V49L351 54Q338 41 314 26T258 1T190 -10ZM294 510L165
662V702H248L335 510H294Z" />
<glyph unicode="&#xfa;" glyph-name="uacute" horiz-adv-x="551" d="M190 -10Q130 -10 98 13T53 79T40 184V473H180V180Q180 139 195 120T248 101Q295 101 322 137T350 221V473H490V161L511 61L490 0H361V49L351 54Q338 41 314 26T258 1T190 -10ZM229 507L315
699H397V659L269 507H229Z" />
<glyph unicode="&#xfb;" glyph-name="ucircumflex" horiz-adv-x="551" d="M190 -10Q130 -10 98 13T53 79T40 184V473H180V180Q180 139 195 120T248 101Q295 101 322 137T350 221V473H490V161L511 61L490 0H361V49L351 54Q338 41 314 26T258 1T190 -10ZM118 530L248
670H308L436 530H376L278 608L178 530H118Z" />
<glyph unicode="&#xfc;" glyph-name="udieresis" horiz-adv-x="551" d="M190 -10Q130 -10 98 13T53 79T40 184V473H180V180Q180 139 195 120T248 101Q295 101 322 137T350 221V473H490V161L511 61L490 0H361V49L351 54Q338 41 314 26T258 1T190 -10ZM177 515L87
605L177 695L267 605L177 515ZM387 515L297 605L387 695L477 605L387 515Z" />
<glyph unicode="&#xfd;" glyph-name="yacute" horiz-adv-x="510" d="M101 -243L-40 -193L0 -74L140 -114Q169 -114 189 -97T222 -53T242 1H149L39 343L20 473H170L245 113H265L340 473H490Q490 473 484 442T466 358T439 244T406 118T371 1Q344 -82 312 -136T230
-216T101 -243ZM200 512L286 704H368V664L240 512H200Z" />
<glyph unicode="&#xfe;" glyph-name="thorn" horiz-adv-x="551" d="M60 -244V535L40 645L71 706H180V429L190 424Q190 424 208 439T257 468T331 483Q420 483 470 426T521 246Q521 154 496 98T427 16T331 -9Q259 -9 230 2T200 14V-244H60ZM266 97Q305 97 328 116T361
168T371 237Q371 273 363 304T335 353T276 372L200 351V110Q200 110 220 104T266 97Z" />
<glyph unicode="&#xff;" glyph-name="ydieresis" horiz-adv-x="510" d="M101 -243L-40 -193L0 -74L140 -114Q169 -114 189 -97T222 -53T242 1H149L39 343L20 473H170L245 113H265L340 473H490Q490 473 484 442T466 358T439 244T406 118T371 1Q344 -82 312 -136T230
-216T101 -243ZM148 520L58 610L148 700L238 610L148 520ZM358 520L268 610L358 700L448 610L358 520Z" />
<glyph unicode="&#x2013;" glyph-name="endash" horiz-adv-x="560" d="M30 200V300H530V200H30Z" />
<glyph unicode="&#x2014;" glyph-name="emdash" horiz-adv-x="860" d="M30 200V300H830V200H30Z" />
<glyph unicode="&#x2018;" glyph-name="quoteleft" horiz-adv-x="253" d="M172 810L187 795Q138 745 124 700T115 630L143 640L213 560L123 480Q85 496 58 527T30 620Q30 665 52 703T106 768T172 810Z" />
<glyph unicode="&#x2019;" glyph-name="quoteright" horiz-adv-x="253" d="M71 460L56 475Q105 525 119 570T128 640L100 630L30 710L120 790Q158 774 185 743T213 650Q213 605 191 567T137 502T71 460Z" />
<glyph unicode="&#x201a;" glyph-name="quotesinglbase" horiz-adv-x="253" d="M71 -180L56 -165Q105 -115 119 -70T128 0L100 -10L30 70L120 150Q158 134 185 103T213 10Q213 -35 191 -73T137 -138T71 -180Z" />
<glyph unicode="&#x201c;" glyph-name="quotedblleft" horiz-adv-x="453" d="M372 810L387 795Q338 745 324 700T315 630L343 640L413 560L323 480Q285 496 258 527T230 620Q230 665 252 703T306 768T372 810ZM172 810L187 795Q138 745 124 700T115 630L143 640L213
560L123 480Q85 496 58 527T30 620Q30 665 52 703T106 768T172 810Z" />
<glyph unicode="&#x201d;" glyph-name="quotedblright" horiz-adv-x="453" d="M71 460L56 475Q105 525 119 570T128 640L100 630L30 710L120 790Q158 774 185 743T213 650Q213 605 191 567T137 502T71 460ZM271 460L256 475Q305 525 319 570T328 640L300 630L230
710L320 790Q358 774 385 743T413 650Q413 605 391 567T337 502T271 460Z" />
<glyph unicode="&#x201e;" glyph-name="quotedblbase" horiz-adv-x="453" d="M71 -180L56 -165Q105 -115 119 -70T128 0L100 -10L30 70L120 150Q158 134 185 103T213 10Q213 -35 191 -73T137 -138T71 -180ZM271 -180L256 -165Q305 -115 319 -70T328 0L300 -10L230
70L320 150Q358 134 385 103T413 10Q413 -35 391 -73T337 -138T271 -180Z" />
<glyph unicode="&#x2022;" glyph-name="bullet" horiz-adv-x="350" d="M175 193L40 328L175 463L310 328L175 193Z" />
<glyph unicode="&#x2039;" glyph-name="guilsinglleft" horiz-adv-x="310" d="M270 130L140 300L270 470H170L40 300L170 130H270Z" />
<glyph unicode="&#x203a;" glyph-name="guilsinglright" horiz-adv-x="310" d="M40 130L170 300L40 470H140L270 300L140 130H40Z" />
</font>
</defs>
</svg>
